# xmcd CD database file
#
# Track frame offsets:
#	150
#	17104
#	35870
#	50864
#	63611
#	78918
#	97408
#	114241
#	136706
#	156126
#	175080
#	192512
#
# Disc length: 2881 seconds
#
# Revision: 0
# Processed by: cddbd v1.5.2PL0 Copyright (c) Steve Scherf et al.
# Submitted via: CDex 1.51
#
DISCID=a80b3f0c
DTITLE=Various Artist - Christmas Remixed
DYEAR=2005
DGENRE=Jazz
TTITLE0=1. Andy Williams - It's The Most Wonderful Time Of The Year (A Shrift Remix) 
TTITLE1=2. Bing Crosby - Happy Holidays (Beef Wellington Remix) 
TTITLE2=3. Dean Martin - Jingle Bells (Dan The Automator Remix) 
TTITLE3=4. Kay Starr - I've Got My Love To Keep Me Warm (Stuhr Remix) 
TTITLE4=5. The Cathedral Brass - Joy To The World (Mocean Worker Remix) 
TTITLE5=6. Johnny Mercer - Winter Wonderland (Rise Ashen's Brazilian Beach Mix) 
TTITLE6=7. Charles Brown - Merry Christmas Baby (MNO Remix) 
TTITLE7=8. The Berlin Symphony Orchestra - The Nutcracker Suite (Baz Kuts Breaks Mix) 
TTITLE8=9. Louis Armstrong and Velma Middleton - Baby, It's Cold Outside (Mulato Beat Remix) 
TTITLE9=10. Duke Ellington - Jingle Bells (Robbie Hardkiss Remix) 
TTITLE10=11. Bing Crosby - The First Noel (Attaboy House Party Mix) 
TTITLE11=12. Mel Tormé - The Christmas Song (Michael Kessler Open Fire Mix) 
EXTD=YEAR: 2005
EXTT0=
EXTT1=
EXTT2=
EXTT3=
EXTT4=
EXTT5=
EXTT6=
EXTT7=
EXTT8=
EXTT9=
EXTT10=
EXTT11=
PLAYORDER=
